<?xml version="1.0" encoding="UTF-8" standalone="no"?>
<!DOCTYPE svg PUBLIC "-//W3C//DTD SVG 1.1//EN"
 "http://www.w3.org/Graphics/SVG/1.1/DTD/svg11.dtd">
<!-- Generated by graphviz version 2.38.0 (20140413.2041)
 -->
<!-- Title: controllers_diagram Pages: 1 -->
<svg width="603pt" height="555pt"
 viewBox="0.00 0.00 602.95 555.34" xmlns="http://www.w3.org/2000/svg" xmlns:xlink="http://www.w3.org/1999/xlink">
<g id="graph0" class="graph" transform="scale(1 1) rotate(0) translate(261.951 250.1)">
<title>controllers_diagram</title>
<polygon fill="white" stroke="none" points="-261.951,305.24 -261.951,-250.1 341,-250.1 341,305.24 -261.951,305.24"/>
<!-- _diagram_info -->
<g id="node1" class="node"><title>_diagram_info</title>
<text text-anchor="start" x="137" y="-192.6" font-family="Times,serif" font-size="13.00">Controllers diagram</text>
<text text-anchor="start" x="137" y="-178.6" font-family="Times,serif" font-size="13.00">Date: Sep 21 2014 &#45; 08:42</text>
<text text-anchor="start" x="137" y="-164.6" font-family="Times,serif" font-size="13.00">Migration version: 20140921055650</text>
<text text-anchor="start" x="137" y="-150.6" font-family="Times,serif" font-size="13.00">Generated by RailRoady 1.1.2</text>
<text text-anchor="start" x="137" y="-136.6" font-family="Times,serif" font-size="13.00">http://railroady.prestonlee.com</text>
</g>
<!-- ApplicationController -->
<g id="node2" class="node"><title>ApplicationController</title>
<path fill="none" stroke="black" d="M-69.6819,130.42C-69.6819,130.42 50.3181,130.42 50.3181,130.42 56.3181,130.42 62.3181,124.42 62.3181,118.42 62.3181,118.42 62.3181,48.4197 62.3181,48.4197 62.3181,42.4197 56.3181,36.4197 50.3181,36.4197 50.3181,36.4197 -69.6819,36.4197 -69.6819,36.4197 -75.6819,36.4197 -81.6819,42.4197 -81.6819,48.4197 -81.6819,48.4197 -81.6819,118.42 -81.6819,118.42 -81.6819,124.42 -75.6819,130.42 -69.6819,130.42"/>
<text text-anchor="middle" x="-9.68186" y="51.6197" font-family="Times,serif" font-size="14.00">ApplicationController</text>
<polyline fill="none" stroke="black" points="-81.6819,59.4197 62.3181,59.4197 "/>
<polyline fill="none" stroke="black" points="-81.6819,83.4197 62.3181,83.4197 "/>
<polyline fill="none" stroke="black" points="-81.6819,107.42 62.3181,107.42 "/>
<text text-anchor="start" x="-73.6819" y="122.62" font-family="Times,serif" font-size="14.00">_layout</text>
</g>
<!-- MicropostsController -->
<g id="node3" class="node"><title>MicropostsController</title>
<path fill="none" stroke="black" d="M54.8013,300.74C54.8013,300.74 171.801,300.74 171.801,300.74 177.801,300.74 183.801,294.74 183.801,288.74 183.801,288.74 183.801,174.74 183.801,174.74 183.801,168.74 177.801,162.74 171.801,162.74 171.801,162.74 54.8013,162.74 54.8013,162.74 48.8013,162.74 42.8013,168.74 42.8013,174.74 42.8013,174.74 42.8013,288.74 42.8013,288.74 42.8013,294.74 48.8013,300.74 54.8013,300.74"/>
<text text-anchor="middle" x="113.301" y="177.94" font-family="Times,serif" font-size="14.00">MicropostsController</text>
<polyline fill="none" stroke="black" points="42.8013,185.74 183.801,185.74 "/>
<text text-anchor="start" x="50.8013" y="200.94" font-family="Times,serif" font-size="14.00">create</text>
<text text-anchor="start" x="50.8013" y="215.94" font-family="Times,serif" font-size="14.00">destroy</text>
<polyline fill="none" stroke="black" points="42.8013,223.74 183.801,223.74 "/>
<polyline fill="none" stroke="black" points="42.8013,247.74 183.801,247.74 "/>
<text text-anchor="start" x="50.8013" y="262.94" font-family="Times,serif" font-size="14.00">_layout</text>
<text text-anchor="start" x="50.8013" y="277.94" font-family="Times,serif" font-size="14.00">correct_user</text>
<text text-anchor="start" x="50.8013" y="292.94" font-family="Times,serif" font-size="14.00">micropost_params</text>
</g>
<!-- ApplicationController&#45;&gt;MicropostsController -->
<g id="edge1" class="edge"><title>ApplicationController&#45;&gt;MicropostsController</title>
<path fill="none" stroke="black" d="M29.5689,130.757C38.0045,140.93 47.0855,151.882 56.0459,162.689"/>
</g>
<!-- RelationshipsController -->
<g id="node4" class="node"><title>RelationshipsController</title>
<path fill="none" stroke="black" d="M-178.444,299.569C-178.444,299.569 -48.4435,299.569 -48.4435,299.569 -42.4435,299.569 -36.4435,293.569 -36.4435,287.569 -36.4435,287.569 -36.4435,203.569 -36.4435,203.569 -36.4435,197.569 -42.4435,191.569 -48.4435,191.569 -48.4435,191.569 -178.444,191.569 -178.444,191.569 -184.444,191.569 -190.444,197.569 -190.444,203.569 -190.444,203.569 -190.444,287.569 -190.444,287.569 -190.444,293.569 -184.444,299.569 -178.444,299.569"/>
<text text-anchor="middle" x="-113.444" y="206.769" font-family="Times,serif" font-size="14.00">RelationshipsController</text>
<polyline fill="none" stroke="black" points="-190.444,214.569 -36.4435,214.569 "/>
<text text-anchor="start" x="-182.444" y="229.769" font-family="Times,serif" font-size="14.00">create</text>
<text text-anchor="start" x="-182.444" y="244.769" font-family="Times,serif" font-size="14.00">destroy</text>
<polyline fill="none" stroke="black" points="-190.444,252.569 -36.4435,252.569 "/>
<polyline fill="none" stroke="black" points="-190.444,276.569 -36.4435,276.569 "/>
<text text-anchor="start" x="-182.444" y="291.769" font-family="Times,serif" font-size="14.00">_layout</text>
</g>
<!-- ApplicationController&#45;&gt;RelationshipsController -->
<g id="edge2" class="edge"><title>ApplicationController&#45;&gt;RelationshipsController</title>
<path fill="none" stroke="black" d="M-39.973,130.756C-52.116,149.732 -66.1795,171.709 -78.7318,191.325"/>
</g>
<!-- SessionsController -->
<g id="node5" class="node"><title>SessionsController</title>
<path fill="none" stroke="black" d="M-245.951,94.3058C-245.951,94.3058 -144.951,94.3058 -144.951,94.3058 -138.951,94.3058 -132.951,88.3058 -132.951,82.3058 -132.951,82.3058 -132.951,-16.6942 -132.951,-16.6942 -132.951,-22.6942 -138.951,-28.6942 -144.951,-28.6942 -144.951,-28.6942 -245.951,-28.6942 -245.951,-28.6942 -251.951,-28.6942 -257.951,-22.6942 -257.951,-16.6942 -257.951,-16.6942 -257.951,82.3058 -257.951,82.3058 -257.951,88.3058 -251.951,94.3058 -245.951,94.3058"/>
<text text-anchor="middle" x="-195.451" y="-13.4942" font-family="Times,serif" font-size="14.00">SessionsController</text>
<polyline fill="none" stroke="black" points="-257.951,-5.69419 -132.951,-5.69419 "/>
<text text-anchor="start" x="-249.951" y="9.50581" font-family="Times,serif" font-size="14.00">create</text>
<text text-anchor="start" x="-249.951" y="24.5058" font-family="Times,serif" font-size="14.00">destroy</text>
<text text-anchor="start" x="-249.951" y="39.5058" font-family="Times,serif" font-size="14.00">new</text>
<polyline fill="none" stroke="black" points="-257.951,47.3058 -132.951,47.3058 "/>
<polyline fill="none" stroke="black" points="-257.951,71.3058 -132.951,71.3058 "/>
<text text-anchor="start" x="-249.951" y="86.5058" font-family="Times,serif" font-size="14.00">_layout</text>
</g>
<!-- ApplicationController&#45;&gt;SessionsController -->
<g id="edge3" class="edge"><title>ApplicationController&#45;&gt;SessionsController</title>
<path fill="none" stroke="black" d="M-81.771,63.7786C-98.5992,59.1937 -116.387,54.3472 -132.769,49.8839"/>
</g>
<!-- StaticPagesController -->
<g id="node6" class="node"><title>StaticPagesController</title>
<path fill="none" stroke="black" d="M111.541,82.565C111.541,82.565 228.541,82.565 228.541,82.565 234.541,82.565 240.541,76.565 240.541,70.565 240.541,70.565 240.541,-43.435 240.541,-43.435 240.541,-49.435 234.541,-55.435 228.541,-55.435 228.541,-55.435 111.541,-55.435 111.541,-55.435 105.541,-55.435 99.5409,-49.435 99.5409,-43.435 99.5409,-43.435 99.5409,70.565 99.5409,70.565 99.5409,76.565 105.541,82.565 111.541,82.565"/>
<text text-anchor="middle" x="170.041" y="-40.235" font-family="Times,serif" font-size="14.00">StaticPagesController</text>
<polyline fill="none" stroke="black" points="99.5409,-32.435 240.541,-32.435 "/>
<text text-anchor="start" x="107.541" y="-17.235" font-family="Times,serif" font-size="14.00">about</text>
<text text-anchor="start" x="107.541" y="-2.23498" font-family="Times,serif" font-size="14.00">contact</text>
<text text-anchor="start" x="107.541" y="12.765" font-family="Times,serif" font-size="14.00">help</text>
<text text-anchor="start" x="107.541" y="27.765" font-family="Times,serif" font-size="14.00">home</text>
<polyline fill="none" stroke="black" points="99.5409,35.565 240.541,35.565 "/>
<polyline fill="none" stroke="black" points="99.5409,59.565 240.541,59.565 "/>
<text text-anchor="start" x="107.541" y="74.765" font-family="Times,serif" font-size="14.00">_layout</text>
</g>
<!-- ApplicationController&#45;&gt;StaticPagesController -->
<g id="edge4" class="edge"><title>ApplicationController&#45;&gt;StaticPagesController</title>
<path fill="none" stroke="black" d="M62.3827,55.4097C74.5898,50.665 87.2533,45.7429 99.4228,41.0129"/>
</g>
<!-- UsersController -->
<g id="node7" class="node"><title>UsersController</title>
<path fill="none" stroke="black" d="M-61.2658,27.4005C-61.2658,27.4005 23.7342,27.4005 23.7342,27.4005 29.7342,27.4005 35.7342,21.4005 35.7342,15.4005 35.7342,15.4005 35.7342,-233.6 35.7342,-233.6 35.7342,-239.6 29.7342,-245.6 23.7342,-245.6 23.7342,-245.6 -61.2658,-245.6 -61.2658,-245.6 -67.2658,-245.6 -73.2658,-239.6 -73.2658,-233.6 -73.2658,-233.6 -73.2658,15.4005 -73.2658,15.4005 -73.2658,21.4005 -67.2658,27.4005 -61.2658,27.4005"/>
<text text-anchor="middle" x="-18.7658" y="-230.4" font-family="Times,serif" font-size="14.00">UsersController</text>
<polyline fill="none" stroke="black" points="-73.2658,-222.6 35.7342,-222.6 "/>
<text text-anchor="start" x="-65.2658" y="-207.4" font-family="Times,serif" font-size="14.00">create</text>
<text text-anchor="start" x="-65.2658" y="-192.4" font-family="Times,serif" font-size="14.00">destroy</text>
<text text-anchor="start" x="-65.2658" y="-177.4" font-family="Times,serif" font-size="14.00">edit</text>
<text text-anchor="start" x="-65.2658" y="-162.4" font-family="Times,serif" font-size="14.00">followers</text>
<text text-anchor="start" x="-65.2658" y="-147.4" font-family="Times,serif" font-size="14.00">following</text>
<text text-anchor="start" x="-65.2658" y="-132.4" font-family="Times,serif" font-size="14.00">index</text>
<text text-anchor="start" x="-65.2658" y="-117.4" font-family="Times,serif" font-size="14.00">new</text>
<text text-anchor="start" x="-65.2658" y="-102.4" font-family="Times,serif" font-size="14.00">show</text>
<text text-anchor="start" x="-65.2658" y="-87.3995" font-family="Times,serif" font-size="14.00">update</text>
<polyline fill="none" stroke="black" points="-73.2658,-79.5995 35.7342,-79.5995 "/>
<polyline fill="none" stroke="black" points="-73.2658,-55.5995 35.7342,-55.5995 "/>
<text text-anchor="start" x="-65.2658" y="-40.3995" font-family="Times,serif" font-size="14.00">_layout</text>
<text text-anchor="start" x="-65.2658" y="-25.3995" font-family="Times,serif" font-size="14.00">admin_user</text>
<text text-anchor="start" x="-65.2658" y="-10.3995" font-family="Times,serif" font-size="14.00">correct_user</text>
<text text-anchor="start" x="-65.2658" y="4.60049" font-family="Times,serif" font-size="14.00">signed_in_hakr</text>
<text text-anchor="start" x="-65.2658" y="19.6005" font-family="Times,serif" font-size="14.00">user_params</text>
</g>
<!-- ApplicationController&#45;&gt;UsersController -->
<g id="edge5" class="edge"><title>ApplicationController&#45;&gt;UsersController</title>
<path fill="none" stroke="black" d="M-11.904,36.3242C-12.0406,33.43 -12.181,30.4546 -12.3245,27.4139"/>
</g>
</g>
</svg>
