<?xml version="1.0" encoding="UTF-8" standalone="no"?>
<!DOCTYPE svg PUBLIC "-//W3C//DTD SVG 1.1//EN"
 "http://www.w3.org/Graphics/SVG/1.1/DTD/svg11.dtd">
<!-- Generated by graphviz version 2.38.0 (20140413.2041)
 -->
<!-- Title: models_diagram Pages: 1 -->
<svg width="580pt" height="246pt"
 viewBox="0.00 0.00 580.13 246.00" xmlns="http://www.w3.org/2000/svg" xmlns:xlink="http://www.w3.org/1999/xlink">
<g id="graph0" class="graph" transform="scale(1 1) rotate(0) translate(4 242)">
<title>models_diagram</title>
<polygon fill="white" stroke="none" points="-4,4 -4,-242 576.135,-242 576.135,4 -4,4"/>
<!-- _diagram_info -->
<g id="node1" class="node"><title>_diagram_info</title>
<text text-anchor="start" x="8" y="-223.6" font-family="Times,serif" font-size="13.00">Models diagram</text>
<text text-anchor="start" x="8" y="-209.6" font-family="Times,serif" font-size="13.00">Date: Sep 21 2014 &#45; 08:42</text>
<text text-anchor="start" x="8" y="-195.6" font-family="Times,serif" font-size="13.00">Migration version: 20140921055650</text>
<text text-anchor="start" x="8" y="-181.6" font-family="Times,serif" font-size="13.00">Generated by RailRoady 1.1.2</text>
<text text-anchor="start" x="8" y="-167.6" font-family="Times,serif" font-size="13.00">http://railroady.prestonlee.com</text>
</g>
<!-- Doc -->
<g id="node2" class="node"><title>Doc</title>
<ellipse fill="none" stroke="black" cx="234" cy="-105" rx="27" ry="18"/>
<text text-anchor="middle" x="234" y="-101.3" font-family="Times,serif" font-size="14.00">Doc</text>
</g>
<!-- Micropost -->
<g id="node3" class="node"><title>Micropost</title>
<ellipse fill="none" stroke="black" cx="289" cy="-18" rx="49.2915" ry="18"/>
<text text-anchor="middle" x="289" y="-14.3" font-family="Times,serif" font-size="14.00">Micropost</text>
</g>
<!-- Relationship -->
<g id="node4" class="node"><title>Relationship</title>
<ellipse fill="none" stroke="black" cx="414" cy="-18" rx="57.6901" ry="18"/>
<text text-anchor="middle" x="414" y="-14.3" font-family="Times,serif" font-size="14.00">Relationship</text>
</g>
<!-- User -->
<g id="node5" class="node"><title>User</title>
<ellipse fill="none" stroke="black" cx="346" cy="-105" rx="28.6953" ry="18"/>
<text text-anchor="middle" x="346" y="-101.3" font-family="Times,serif" font-size="14.00">User</text>
</g>
<!-- User&#45;&gt;Micropost -->
<g id="edge4" class="edge"><title>User&#45;&gt;Micropost</title>
<path fill="none" stroke="#efd615" d="M330.799,-81.3325C323.147,-69.9203 313.845,-56.0489 305.96,-44.2916"/>
<ellipse fill="none" stroke="#efd615" cx="333.051" cy="-84.69" rx="4.00002" ry="4.00002"/>
<polygon fill="#efd615" stroke="#efd615" points="305.828,-44.094 303.996,-33.2822 303.043,-39.9412 300.258,-35.7885 300.258,-35.7885 300.258,-35.7885 303.043,-39.9412 296.521,-38.2948 305.828,-44.094 305.828,-44.094"/>
</g>
<!-- User&#45;&gt;Relationship -->
<g id="edge5" class="edge"><title>User&#45;&gt;Relationship</title>
<path fill="none" stroke="#8ff439" d="M362.136,-81.3189C368.475,-72.6437 375.919,-62.739 383,-54 385.895,-50.4269 389.027,-46.721 392.15,-43.1162"/>
<ellipse fill="none" stroke="#8ff439" cx="359.664" cy="-84.7283" rx="4.00002" ry="4.00002"/>
<polygon fill="#8ff439" stroke="#8ff439" points="392.266,-42.9834 402.251,-38.4499 395.57,-39.2301 398.873,-35.4768 398.873,-35.4768 398.873,-35.4768 395.57,-39.2301 395.495,-32.5036 392.266,-42.9834 392.266,-42.9834"/>
</g>
<!-- User&#45;&gt;Relationship -->
<g id="edge7" class="edge"><title>User&#45;&gt;Relationship</title>
<path fill="none" stroke="#5ee0b2" d="M368.261,-84.7175C373.364,-79.8277 378.582,-74.4179 383,-69 389.097,-61.5235 394.914,-52.7576 399.829,-44.6715"/>
<ellipse fill="none" stroke="#5ee0b2" cx="365.308" cy="-87.4641" rx="4.00002" ry="4.00002"/>
<polygon fill="#5ee0b2" stroke="#5ee0b2" points="399.896,-44.5579 408.841,-38.2152 402.429,-40.2469 404.961,-35.9358 404.961,-35.9358 404.961,-35.9358 402.429,-40.2469 401.081,-33.6563 399.896,-44.5579 399.896,-44.5579"/>
<text text-anchor="middle" x="453.5" y="-57.8" font-family="Times,serif" font-size="14.00">reverse_relationships</text>
</g>
<!-- User&#45;&gt;User -->
<g id="edge6" class="edge"><title>User&#45;&gt;User</title>
<path fill="none" stroke="#aa8f6a" d="M384.478,-107.949C389.371,-107.433 392.597,-106.45 392.597,-105 392.597,-103.55 389.371,-102.567 384.478,-102.051"/>
<polygon fill="#aa8f6a" stroke="#aa8f6a" points="384.199,-107.96 374.023,-103.876 379.204,-108.166 374.208,-108.372 374.208,-108.372 374.208,-108.372 379.204,-108.166 374.393,-112.868 384.199,-107.96 384.199,-107.96"/>
<polygon fill="#aa8f6a" stroke="#aa8f6a" points="384.199,-102.04 374.393,-97.1321 379.204,-101.834 374.208,-101.628 374.208,-101.628 374.208,-101.628 379.204,-101.834 374.023,-106.124 384.199,-102.04 384.199,-102.04"/>
<text text-anchor="middle" x="437.097" y="-101.3" font-family="Times,serif" font-size="14.00">followed_users</text>
</g>
<!-- User&#45;&gt;User -->
<g id="edge8" class="edge"><title>User&#45;&gt;User</title>
<path fill="none" stroke="#33870a" d="M383.769,-110.606C424.774,-113.221 481.597,-111.352 481.597,-105 481.597,-98.6477 424.774,-96.7789 383.769,-99.3937"/>
<polygon fill="#33870a" stroke="#33870a" points="383.7,-110.601 374.069,-105.358 378.715,-110.223 373.729,-109.845 373.729,-109.845 373.729,-109.845 378.715,-110.223 373.389,-114.332 383.7,-110.601 383.7,-110.601"/>
<polygon fill="#33870a" stroke="#33870a" points="383.7,-99.3988 373.389,-95.6679 378.715,-99.7769 373.729,-100.155 373.729,-100.155 373.729,-100.155 378.715,-99.7769 374.069,-104.642 383.7,-99.3988 383.7,-99.3988"/>
<text text-anchor="middle" x="509.097" y="-101.3" font-family="Times,serif" font-size="14.00">followers</text>
</g>
<!-- ActiveRecord::Base -->
<g id="node6" class="node"><title>ActiveRecord::Base</title>
<ellipse fill="none" stroke="black" cx="310" cy="-199" rx="84.485" ry="18"/>
<text text-anchor="middle" x="310" y="-195.3" font-family="Times,serif" font-size="14.00">ActiveRecord::Base</text>
</g>
<!-- ActiveRecord::Base&#45;&gt;Doc -->
<g id="edge1" class="edge"><title>ActiveRecord::Base&#45;&gt;Doc</title>
<path fill="none" stroke="black" d="M296.06,-181.126C281.919,-164.007 260.226,-137.747 246.59,-121.24"/>
</g>
<!-- ActiveRecord::Base&#45;&gt;Micropost -->
<g id="edge2" class="edge"><title>ActiveRecord::Base&#45;&gt;Micropost</title>
<path fill="none" stroke="black" d="M307.986,-180.837C303.972,-146.623 295.016,-70.2828 291.007,-36.1113"/>
</g>
<!-- ActiveRecord::Base&#45;&gt;Relationship -->
<g id="edge3" class="edge"><title>ActiveRecord::Base&#45;&gt;Relationship</title>
<path fill="none" stroke="black" d="M375.781,-187.66C443.236,-175.554 541.394,-153.246 564,-123 597.484,-78.1999 513.495,-45.739 458.101,-29.8982"/>
</g>
<!-- ActiveRecord::Base&#45;&gt;User -->
<g id="edge9" class="edge"><title>ActiveRecord::Base&#45;&gt;User</title>
<path fill="none" stroke="black" d="M316.771,-180.696C323.289,-164.039 333.077,-139.025 339.502,-122.607"/>
</g>
</g>
</svg>
