<?xml version="1.0" encoding="UTF-8" standalone="no"?>
<!DOCTYPE svg PUBLIC "-//W3C//DTD SVG 1.1//EN"
 "http://www.w3.org/Graphics/SVG/1.1/DTD/svg11.dtd">
<!-- Generated by graphviz version 2.38.0 (20140413.2041)
 -->
<!-- Title: models_diagram Pages: 1 -->
<svg width="688pt" height="433pt"
 viewBox="0.00 0.00 687.63 433.00" xmlns="http://www.w3.org/2000/svg" xmlns:xlink="http://www.w3.org/1999/xlink">
<g id="graph0" class="graph" transform="scale(1 1) rotate(0) translate(4 429)">
<title>models_diagram</title>
<polygon fill="white" stroke="none" points="-4,4 -4,-429 683.633,-429 683.633,4 -4,4"/>
<!-- _diagram_info -->
<g id="node1" class="node"><title>_diagram_info</title>
<text text-anchor="start" x="8" y="-410.6" font-family="Times,serif" font-size="13.00">Models diagram</text>
<text text-anchor="start" x="8" y="-396.6" font-family="Times,serif" font-size="13.00">Date: Sep 21 2014 &#45; 08:42</text>
<text text-anchor="start" x="8" y="-382.6" font-family="Times,serif" font-size="13.00">Migration version: 20140921055650</text>
<text text-anchor="start" x="8" y="-368.6" font-family="Times,serif" font-size="13.00">Generated by RailRoady 1.1.2</text>
<text text-anchor="start" x="8" y="-354.6" font-family="Times,serif" font-size="13.00">http://railroady.prestonlee.com</text>
</g>
<!-- Doc -->
<g id="node2" class="node"><title>Doc</title>
<path fill="none" stroke="black" d="M125.5,-181C125.5,-181 236.5,-181 236.5,-181 242.5,-181 248.5,-187 248.5,-193 248.5,-193 248.5,-275 248.5,-275 248.5,-281 242.5,-287 236.5,-287 236.5,-287 125.5,-287 125.5,-287 119.5,-287 113.5,-281 113.5,-275 113.5,-275 113.5,-193 113.5,-193 113.5,-187 119.5,-181 125.5,-181"/>
<text text-anchor="middle" x="181" y="-271.8" font-family="Times,serif" font-size="14.00">Doc</text>
<polyline fill="none" stroke="black" points="113.5,-264 248.5,-264 "/>
<text text-anchor="start" x="121.5" y="-248.8" font-family="Times,serif" font-size="14.00">id :integer</text>
<text text-anchor="start" x="121.5" y="-233.8" font-family="Times,serif" font-size="14.00">url :string</text>
<text text-anchor="start" x="121.5" y="-218.8" font-family="Times,serif" font-size="14.00">tabbed_at :datetime</text>
<text text-anchor="start" x="121.5" y="-203.8" font-family="Times,serif" font-size="14.00">created_at :datetime</text>
<text text-anchor="start" x="121.5" y="-188.8" font-family="Times,serif" font-size="14.00">updated_at :datetime</text>
</g>
<!-- Micropost -->
<g id="node3" class="node"><title>Micropost</title>
<path fill="none" stroke="black" d="M221.5,-0.5C221.5,-0.5 332.5,-0.5 332.5,-0.5 338.5,-0.5 344.5,-6.5 344.5,-12.5 344.5,-12.5 344.5,-94.5 344.5,-94.5 344.5,-100.5 338.5,-106.5 332.5,-106.5 332.5,-106.5 221.5,-106.5 221.5,-106.5 215.5,-106.5 209.5,-100.5 209.5,-94.5 209.5,-94.5 209.5,-12.5 209.5,-12.5 209.5,-6.5 215.5,-0.5 221.5,-0.5"/>
<text text-anchor="middle" x="277" y="-91.3" font-family="Times,serif" font-size="14.00">Micropost</text>
<polyline fill="none" stroke="black" points="209.5,-83.5 344.5,-83.5 "/>
<text text-anchor="start" x="217.5" y="-68.3" font-family="Times,serif" font-size="14.00">id :integer</text>
<text text-anchor="start" x="217.5" y="-53.3" font-family="Times,serif" font-size="14.00">content :string</text>
<text text-anchor="start" x="217.5" y="-38.3" font-family="Times,serif" font-size="14.00">user_id :integer</text>
<text text-anchor="start" x="217.5" y="-23.3" font-family="Times,serif" font-size="14.00">created_at :datetime</text>
<text text-anchor="start" x="217.5" y="-8.3" font-family="Times,serif" font-size="14.00">updated_at :datetime</text>
</g>
<!-- Relationship -->
<g id="node4" class="node"><title>Relationship</title>
<path fill="none" stroke="black" d="M374.5,-0.5C374.5,-0.5 485.5,-0.5 485.5,-0.5 491.5,-0.5 497.5,-6.5 497.5,-12.5 497.5,-12.5 497.5,-94.5 497.5,-94.5 497.5,-100.5 491.5,-106.5 485.5,-106.5 485.5,-106.5 374.5,-106.5 374.5,-106.5 368.5,-106.5 362.5,-100.5 362.5,-94.5 362.5,-94.5 362.5,-12.5 362.5,-12.5 362.5,-6.5 368.5,-0.5 374.5,-0.5"/>
<text text-anchor="middle" x="430" y="-91.3" font-family="Times,serif" font-size="14.00">Relationship</text>
<polyline fill="none" stroke="black" points="362.5,-83.5 497.5,-83.5 "/>
<text text-anchor="start" x="370.5" y="-68.3" font-family="Times,serif" font-size="14.00">id :integer</text>
<text text-anchor="start" x="370.5" y="-53.3" font-family="Times,serif" font-size="14.00">follower_id :integer</text>
<text text-anchor="start" x="370.5" y="-38.3" font-family="Times,serif" font-size="14.00">followed_id :integer</text>
<text text-anchor="start" x="370.5" y="-23.3" font-family="Times,serif" font-size="14.00">created_at :datetime</text>
<text text-anchor="start" x="370.5" y="-8.3" font-family="Times,serif" font-size="14.00">updated_at :datetime</text>
</g>
<!-- User -->
<g id="node5" class="node"><title>User</title>
<path fill="none" stroke="black" d="M317.5,-158.5C317.5,-158.5 448.5,-158.5 448.5,-158.5 454.5,-158.5 460.5,-164.5 460.5,-170.5 460.5,-170.5 460.5,-297.5 460.5,-297.5 460.5,-303.5 454.5,-309.5 448.5,-309.5 448.5,-309.5 317.5,-309.5 317.5,-309.5 311.5,-309.5 305.5,-303.5 305.5,-297.5 305.5,-297.5 305.5,-170.5 305.5,-170.5 305.5,-164.5 311.5,-158.5 317.5,-158.5"/>
<text text-anchor="middle" x="383" y="-294.3" font-family="Times,serif" font-size="14.00">User</text>
<polyline fill="none" stroke="black" points="305.5,-286.5 460.5,-286.5 "/>
<text text-anchor="start" x="313.5" y="-271.3" font-family="Times,serif" font-size="14.00">id :integer</text>
<text text-anchor="start" x="313.5" y="-256.3" font-family="Times,serif" font-size="14.00">name :string</text>
<text text-anchor="start" x="313.5" y="-241.3" font-family="Times,serif" font-size="14.00">email :string</text>
<text text-anchor="start" x="313.5" y="-226.3" font-family="Times,serif" font-size="14.00">created_at :datetime</text>
<text text-anchor="start" x="313.5" y="-211.3" font-family="Times,serif" font-size="14.00">updated_at :datetime</text>
<text text-anchor="start" x="313.5" y="-196.3" font-family="Times,serif" font-size="14.00">password_digest :string</text>
<text text-anchor="start" x="313.5" y="-181.3" font-family="Times,serif" font-size="14.00">remember_token :string</text>
<text text-anchor="start" x="313.5" y="-166.3" font-family="Times,serif" font-size="14.00">admin :boolean</text>
</g>
<!-- User&#45;&gt;Micropost -->
<g id="edge4" class="edge"><title>User&#45;&gt;Micropost</title>
<path fill="none" stroke="#02216e" d="M334.527,-151.373C327.329,-139.251 320.018,-126.941 313.132,-115.345"/>
<ellipse fill="none" stroke="#02216e" cx="336.618" cy="-154.895" rx="4.00002" ry="4.00002"/>
<polygon fill="#02216e" stroke="#02216e" points="313.064,-115.23 311.827,-104.334 310.511,-110.931 307.958,-106.632 307.958,-106.632 307.958,-106.632 310.511,-110.931 304.089,-108.93 313.064,-115.23 313.064,-115.23"/>
</g>
<!-- User&#45;&gt;Relationship -->
<g id="edge5" class="edge"><title>User&#45;&gt;Relationship</title>
<path fill="none" stroke="#414180" d="M394.774,-150.481C396.598,-141.816 398.666,-133.188 401,-125 401.799,-122.196 402.676,-119.352 403.61,-116.497"/>
<ellipse fill="none" stroke="#414180" cx="393.959" cy="-154.516" rx="4.00001" ry="4.00001"/>
<polygon fill="#414180" stroke="#414180" points="403.703,-116.229 411.234,-108.258 405.343,-111.506 406.983,-106.782 406.983,-106.782 406.983,-106.782 405.343,-111.506 402.732,-105.306 403.703,-116.229 403.703,-116.229"/>
</g>
<!-- User&#45;&gt;Relationship -->
<g id="edge7" class="edge"><title>User&#45;&gt;Relationship</title>
<path fill="none" stroke="#5e1edf" d="M404.709,-150.55C407.723,-139.106 410.775,-127.513 413.668,-116.528"/>
<ellipse fill="none" stroke="#5e1edf" cx="403.678" cy="-154.466" rx="4.00001" ry="4.00001"/>
<polygon fill="#5e1edf" stroke="#5e1edf" points="413.727,-116.302 420.625,-107.778 415,-111.467 416.273,-106.632 416.273,-106.632 416.273,-106.632 415,-111.467 411.922,-105.486 413.727,-116.302 413.727,-116.302"/>
<text text-anchor="middle" x="470.5" y="-128.8" font-family="Times,serif" font-size="14.00">reverse_relationships</text>
</g>
<!-- User&#45;&gt;User -->
<g id="edge6" class="edge"><title>User&#45;&gt;User</title>
<path fill="none" stroke="#b48600" d="M470.606,-239.954C475.551,-238.513 478.5,-236.529 478.5,-234 478.5,-231.471 475.551,-229.487 470.606,-228.046"/>
<polygon fill="#b48600" stroke="#b48600" points="470.389,-239.995 459.724,-237.443 465.477,-240.929 460.565,-241.864 460.565,-241.864 460.565,-241.864 465.477,-240.929 461.407,-246.284 470.389,-239.995 470.389,-239.995"/>
<polygon fill="#b48600" stroke="#b48600" points="470.389,-228.005 461.407,-221.716 465.477,-227.071 460.565,-226.136 460.565,-226.136 460.565,-226.136 465.477,-227.071 459.724,-230.557 470.389,-228.005 470.389,-228.005"/>
<text text-anchor="middle" x="523" y="-230.3" font-family="Times,serif" font-size="14.00">followed_users</text>
</g>
<!-- User&#45;&gt;User -->
<g id="edge8" class="edge"><title>User&#45;&gt;User</title>
<path fill="none" stroke="#ed38a3" d="M471.215,-251.254C519.42,-253.206 567.5,-247.455 567.5,-234 567.5,-220.545 519.42,-214.794 471.215,-216.746"/>
<polygon fill="#ed38a3" stroke="#ed38a3" points="470.931,-251.239 461.178,-246.226 465.938,-250.98 460.944,-250.72 460.944,-250.72 460.944,-250.72 465.938,-250.98 460.711,-255.214 470.931,-251.239 470.931,-251.239"/>
<polygon fill="#ed38a3" stroke="#ed38a3" points="470.931,-216.761 460.711,-212.786 465.938,-217.02 460.944,-217.28 460.944,-217.28 460.944,-217.28 465.938,-217.02 461.178,-221.774 470.931,-216.761 470.931,-216.761"/>
<text text-anchor="middle" x="595" y="-230.3" font-family="Times,serif" font-size="14.00">followers</text>
</g>
<!-- ActiveRecord::Base -->
<g id="node6" class="node"><title>ActiveRecord::Base</title>
<ellipse fill="none" stroke="black" cx="310" cy="-386" rx="84.485" ry="18"/>
<text text-anchor="middle" x="310" y="-382.3" font-family="Times,serif" font-size="14.00">ActiveRecord::Base</text>
</g>
<!-- ActiveRecord::Base&#45;&gt;Doc -->
<g id="edge1" class="edge"><title>ActiveRecord::Base&#45;&gt;Doc</title>
<path fill="none" stroke="black" d="M295.453,-368.085C278.65,-348.547 250.195,-315.459 225.861,-287.164"/>
</g>
<!-- ActiveRecord::Base&#45;&gt;Micropost -->
<g id="edge2" class="edge"><title>ActiveRecord::Base&#45;&gt;Micropost</title>
<path fill="none" stroke="black" d="M306.545,-367.791C303.616,-352.634 299.502,-329.93 297,-310 288.189,-239.806 282.608,-158.245 279.643,-106.515"/>
</g>
<!-- ActiveRecord::Base&#45;&gt;Relationship -->
<g id="edge3" class="edge"><title>ActiveRecord::Base&#45;&gt;Relationship</title>
<path fill="none" stroke="black" d="M388.039,-378.894C478.035,-370.043 617.772,-350.112 650,-310 692.312,-257.337 686.201,-215.037 650,-158 616.75,-105.612 549.146,-79.2615 497.604,-66.3199"/>
</g>
<!-- ActiveRecord::Base&#45;&gt;User -->
<g id="edge9" class="edge"><title>ActiveRecord::Base&#45;&gt;User</title>
<path fill="none" stroke="black" d="M318.232,-368.085C325.28,-353.604 335.95,-331.679 346.607,-309.779"/>
</g>
</g>
</svg>
